<svg width="98" height="98" viewBox="0 0 98 98" fill="none" xmlns="http://www.w3.org/2000/svg">
<path d="M68 8C73.8348 8 79.4306 10.3179 83.5564 14.4437C87.6822 18.5695 90 24.1652 90 30V68C90 73.8348 87.6822 79.4306 83.5564 83.5564C79.4306 87.6822 73.8348 90 68 90H30C24.1652 90 18.5695 87.6822 14.4437 83.5564C10.3179 79.4306 8 73.8348 8 68V30C8 24.1652 10.3179 18.5695 14.4437 14.4437C18.5695 10.3179 24.1652 8 30 8H68ZM68 0H30C22.0508 0.0237409 14.434 3.19207 8.81302 8.81302C3.19207 14.434 0.0237409 22.0508 0 30V68C0.0237409 75.9492 3.19207 83.566 8.81302 89.187C14.434 94.8079 22.0508 97.9763 30 98H68C75.9492 97.9763 83.566 94.8079 89.187 89.187C94.8079 83.566 97.9763 75.9492 98 68V30C97.9763 22.0508 94.8079 14.434 89.187 8.81302C83.566 3.19207 75.9492 0.0237409 68 0Z" fill="white"/>
<path d="M75.14 17C74.0067 17 72.8989 17.3361 71.9566 17.9657C71.0143 18.5953 70.2799 19.4902 69.8462 20.5372C69.4125 21.5842 69.299 22.7364 69.5201 23.8479C69.7412 24.9594 70.2869 25.9804 71.0883 26.7817C71.8896 27.5831 72.9106 28.1288 74.0221 28.3499C75.1336 28.571 76.2858 28.4575 77.3328 28.0238C78.3798 27.5901 79.2747 26.8557 79.9043 25.9134C80.5339 24.9711 80.87 23.8633 80.87 22.73C80.87 21.9775 80.7218 21.2324 80.4338 20.5372C80.1459 19.842 79.7238 19.2104 79.1917 18.6783C78.6596 18.1462 78.028 17.7241 77.3328 17.4362C76.6376 17.1482 75.8925 17 75.14 17Z" fill="white"/>
<path d="M49.27 31.47C52.7676 31.468 56.1873 32.5035 59.0962 34.4454C62.0052 36.3874 64.2729 39.1485 65.6123 42.3795C66.9517 45.6105 67.3026 49.1662 66.6208 52.5967C65.9389 56.0273 64.2548 59.1784 61.7816 61.6516C59.3085 64.1248 56.1573 65.8089 52.7267 66.4908C49.2962 67.1726 45.7405 66.8217 42.5095 65.4823C39.2785 64.1429 36.5174 61.8752 34.5755 58.9662C32.6335 56.0573 31.598 52.6376 31.6 49.14C31.6079 44.4561 33.4721 39.9662 36.7842 36.6542C40.0962 33.3421 44.5861 31.4779 49.27 31.47ZM49.27 23.47C44.1927 23.4799 39.2323 24.9946 35.0156 27.8228C30.7989 30.651 27.5152 34.6657 25.5795 39.3596C23.6438 44.0534 23.143 49.2158 24.1403 54.1942C25.1376 59.1726 27.5883 63.7436 31.1827 67.3296C34.7771 70.9156 39.3539 73.3557 44.3346 74.3414C49.3153 75.3271 54.4764 74.8142 59.1658 72.8675C63.8551 70.9209 67.8621 67.6278 70.6805 63.4046C73.4988 59.1813 75.002 54.2173 75 49.14C74.9987 45.7643 74.3318 42.4219 73.0376 39.3042C71.7433 36.1865 69.8471 33.3545 67.4573 30.9703C65.0675 28.5861 62.2311 26.6964 59.1104 25.4095C55.9896 24.1225 52.6457 23.4634 49.27 23.47Z" fill="white"/>
</svg>
