<svg width="97" height="97" viewBox="0 0 97 97" fill="none" xmlns="http://www.w3.org/2000/svg">
<path d="M48.5 0C21.7124 0 0 21.7124 0 48.5C0 75.2876 21.7124 97 48.5 97C75.2876 97 97 75.2876 97 48.5C97 21.7124 75.2876 0 48.5 0ZM90.6637 46.9355H71.902C71.7299 40.0047 70.4971 33.3836 68.3099 27.3227C72.5341 25.5611 76.4391 23.2174 80 20.4482C86.33 27.5543 90.2882 36.7818 90.6637 46.9355ZM46.7696 90.6543C41.5692 86.3237 37.2073 80.7009 34.0157 74.1706C38.1116 72.8908 42.4516 72.1899 46.9355 72.046V90.6606C46.8792 90.6606 46.826 90.6575 46.7696 90.6543ZM50.2241 6.34568C56.1255 11.2583 60.941 17.8386 64.1984 25.5141C59.7364 27.038 54.9959 27.9235 50.0614 28.0799V6.33629C50.1208 6.33942 50.1709 6.34255 50.2241 6.34568ZM55.4371 6.87761C64.0732 8.31384 71.8207 12.3472 77.8535 18.1859C74.5774 20.6985 70.9977 22.8263 67.1271 24.4377C64.2797 17.6884 60.2839 11.7214 55.4371 6.87761ZM46.9355 6.33629V28.0799C42.001 27.9204 37.2574 27.038 32.7985 25.5141C36.0558 17.8386 40.8714 11.2583 46.7728 6.34568C46.8291 6.34255 46.8792 6.33942 46.9355 6.33629ZM29.8697 24.4409C26.0054 22.8294 22.4226 20.7017 19.1465 18.1891C25.1762 12.3503 32.9268 8.31697 41.5629 6.88074C36.7129 11.7214 32.7203 17.6884 29.8697 24.4409ZM31.6189 28.3991C36.4438 30.0731 41.5848 31.0494 46.9355 31.2121V46.9355H28.227C28.396 40.3833 29.5568 34.1221 31.6189 28.3991ZM46.9355 50.0645V68.9169C42.001 69.0671 37.2292 69.8744 32.7328 71.3232C30.0231 64.8711 28.4241 57.6837 28.227 50.0645H46.9355ZM41.5629 90.1224C33.8248 88.8364 26.797 85.4664 21.0834 80.5726C24.1655 78.4355 27.4979 76.6269 31.0588 75.2532C33.7873 80.9105 37.3575 85.9326 41.5629 90.1224ZM50.0645 90.6637V72.0491C54.5453 72.193 58.8884 72.8939 62.9843 74.1737C59.7895 80.704 55.4308 86.3269 50.2304 90.6575C50.1772 90.6575 50.1208 90.6606 50.0645 90.6637ZM65.9412 75.2532C69.4989 76.6269 72.8282 78.4386 75.9166 80.5726C70.203 85.4633 63.1752 88.8364 55.4371 90.1224C59.6425 85.9326 63.2096 80.9105 65.9412 75.2532ZM64.2672 71.3232C59.7676 69.8744 54.9959 69.0671 50.0645 68.9169V50.0645H68.773C68.5759 57.6837 66.9738 64.8711 64.2672 71.3232ZM50.0645 46.9355V31.2121C55.412 31.0494 60.553 30.0763 65.3811 28.4022C67.44 34.1252 68.6009 40.3864 68.773 46.9386H50.0645V46.9355ZM17.0032 20.4482C20.564 23.2174 24.469 25.5611 28.6901 27.3227C26.5029 33.3836 25.2701 40.0047 25.098 46.9355H6.33629C6.71177 36.7818 10.67 27.5543 17.0032 20.4482ZM6.33629 50.0645H25.098C25.292 58.0592 26.9629 65.6095 29.8009 72.3964C25.8364 73.9422 22.141 76.0011 18.7304 78.4386C11.3834 71.126 6.74619 61.1288 6.33629 50.0645ZM78.2696 78.4355C74.859 76.0011 71.1636 73.939 67.196 72.3933C70.0371 65.6064 71.7049 58.0561 71.902 50.0614H90.6637C90.2538 61.1288 85.6135 71.126 78.2696 78.4355Z" fill="white"/>
</svg>
